<mxfile host="app.diagrams.net" agent="Mozilla/5.0 (Windows NT 10.0; Win64; x64) AppleWebKit/537.36 (KHTML, like Gecko) Chrome/131.0.0.0 Safari/537.36" version="25.0.3" pages="3">
  <diagram name="페이지-1" id="Us1SMsNQFQGLI0AosbLC">
    <mxGraphModel dx="2080" dy="1574" grid="0" gridSize="10" guides="1" tooltips="1" connect="1" arrows="1" fold="1" page="0" pageScale="1" pageWidth="827" pageHeight="1169" math="0" shadow="0">
      <root>
        <mxCell id="0" />
        <mxCell id="1" parent="0" />
        <mxCell id="c98Ii0rdQeT0ruCdH5SG-1" value="고객" style="whiteSpace=wrap;html=1;align=center;" vertex="1" parent="1">
          <mxGeometry x="145" y="180" width="100" height="40" as="geometry" />
        </mxCell>
        <mxCell id="c98Ii0rdQeT0ruCdH5SG-3" value="주소" style="ellipse;whiteSpace=wrap;html=1;align=center;" vertex="1" parent="1">
          <mxGeometry x="2" y="144" width="100" height="40" as="geometry" />
        </mxCell>
        <mxCell id="c98Ii0rdQeT0ruCdH5SG-5" value="" style="endArrow=none;html=1;rounded=0;fontSize=12;startSize=8;endSize=8;curved=1;entryX=0.5;entryY=0;entryDx=0;entryDy=0;" edge="1" parent="1" source="c98Ii0rdQeT0ruCdH5SG-13" target="c98Ii0rdQeT0ruCdH5SG-1">
          <mxGeometry relative="1" as="geometry">
            <mxPoint x="115" y="200" as="sourcePoint" />
            <mxPoint x="275" y="200" as="targetPoint" />
          </mxGeometry>
        </mxCell>
        <mxCell id="c98Ii0rdQeT0ruCdH5SG-7" value="전화번호" style="ellipse;whiteSpace=wrap;html=1;align=center;fontStyle=4;" vertex="1" parent="1">
          <mxGeometry x="240" y="44" width="100" height="40" as="geometry" />
        </mxCell>
        <mxCell id="c98Ii0rdQeT0ruCdH5SG-8" value="" style="endArrow=none;html=1;rounded=0;fontSize=12;startSize=8;endSize=8;curved=1;entryX=0.5;entryY=0;entryDx=0;entryDy=0;exitX=0;exitY=0.5;exitDx=0;exitDy=0;" edge="1" parent="1" source="c98Ii0rdQeT0ruCdH5SG-7" target="c98Ii0rdQeT0ruCdH5SG-1">
          <mxGeometry relative="1" as="geometry">
            <mxPoint x="295" y="169" as="sourcePoint" />
            <mxPoint x="205" y="190" as="targetPoint" />
          </mxGeometry>
        </mxCell>
        <mxCell id="c98Ii0rdQeT0ruCdH5SG-9" value="이메일" style="ellipse;whiteSpace=wrap;html=1;align=center;fontStyle=4;" vertex="1" parent="1">
          <mxGeometry x="265" y="98" width="100" height="40" as="geometry" />
        </mxCell>
        <mxCell id="c98Ii0rdQeT0ruCdH5SG-12" value="고객코드" style="ellipse;whiteSpace=wrap;html=1;align=center;fontStyle=4;" vertex="1" parent="1">
          <mxGeometry x="5" y="44" width="100" height="40" as="geometry" />
        </mxCell>
        <mxCell id="c98Ii0rdQeT0ruCdH5SG-13" value="고객명" style="ellipse;whiteSpace=wrap;html=1;align=center;" vertex="1" parent="1">
          <mxGeometry x="117" y="29" width="100" height="40" as="geometry" />
        </mxCell>
        <mxCell id="c98Ii0rdQeT0ruCdH5SG-14" value="기본주소" style="ellipse;whiteSpace=wrap;html=1;align=center;" vertex="1" parent="1">
          <mxGeometry x="-118" y="138" width="100" height="40" as="geometry" />
        </mxCell>
        <mxCell id="c98Ii0rdQeT0ruCdH5SG-15" value="t상세주소" style="ellipse;whiteSpace=wrap;html=1;align=center;" vertex="1" parent="1">
          <mxGeometry x="-108" y="193" width="100" height="40" as="geometry" />
        </mxCell>
        <mxCell id="c98Ii0rdQeT0ruCdH5SG-16" value="가입일" style="ellipse;whiteSpace=wrap;html=1;align=center;" vertex="1" parent="1">
          <mxGeometry x="33" y="239" width="100" height="40" as="geometry" />
        </mxCell>
        <mxCell id="c98Ii0rdQeT0ruCdH5SG-17" value="" style="endArrow=none;html=1;rounded=0;fontSize=12;startSize=8;endSize=8;curved=1;entryX=0;entryY=0.5;entryDx=0;entryDy=0;exitX=0.57;exitY=-0.025;exitDx=0;exitDy=0;exitPerimeter=0;" edge="1" parent="1" source="c98Ii0rdQeT0ruCdH5SG-1" target="c98Ii0rdQeT0ruCdH5SG-9">
          <mxGeometry relative="1" as="geometry">
            <mxPoint x="284" y="123" as="sourcePoint" />
            <mxPoint x="205" y="190" as="targetPoint" />
          </mxGeometry>
        </mxCell>
        <mxCell id="c98Ii0rdQeT0ruCdH5SG-18" value="" style="endArrow=none;html=1;rounded=0;fontSize=12;startSize=8;endSize=8;curved=1;exitX=0.5;exitY=0;exitDx=0;exitDy=0;entryX=0.5;entryY=1;entryDx=0;entryDy=0;" edge="1" parent="1" source="c98Ii0rdQeT0ruCdH5SG-1" target="c98Ii0rdQeT0ruCdH5SG-12">
          <mxGeometry relative="1" as="geometry">
            <mxPoint x="212" y="189" as="sourcePoint" />
            <mxPoint x="109" y="74" as="targetPoint" />
          </mxGeometry>
        </mxCell>
        <mxCell id="c98Ii0rdQeT0ruCdH5SG-19" value="" style="endArrow=none;html=1;rounded=0;fontSize=12;startSize=8;endSize=8;curved=1;entryX=0;entryY=0.5;entryDx=0;entryDy=0;exitX=0.5;exitY=0;exitDx=0;exitDy=0;" edge="1" parent="1" source="c98Ii0rdQeT0ruCdH5SG-16" target="c98Ii0rdQeT0ruCdH5SG-1">
          <mxGeometry relative="1" as="geometry">
            <mxPoint x="222" y="199" as="sourcePoint" />
            <mxPoint x="317" y="197" as="targetPoint" />
          </mxGeometry>
        </mxCell>
        <mxCell id="c98Ii0rdQeT0ruCdH5SG-20" value="" style="endArrow=none;html=1;rounded=0;fontSize=12;startSize=8;endSize=8;curved=1;exitX=1;exitY=0.5;exitDx=0;exitDy=0;" edge="1" parent="1" source="c98Ii0rdQeT0ruCdH5SG-14">
          <mxGeometry relative="1" as="geometry">
            <mxPoint x="232" y="209" as="sourcePoint" />
            <mxPoint x="4" y="165" as="targetPoint" />
          </mxGeometry>
        </mxCell>
        <mxCell id="c98Ii0rdQeT0ruCdH5SG-21" value="" style="endArrow=none;html=1;rounded=0;fontSize=12;startSize=8;endSize=8;curved=1;entryX=0;entryY=0.5;entryDx=0;entryDy=0;exitX=1;exitY=0.5;exitDx=0;exitDy=0;" edge="1" parent="1" source="c98Ii0rdQeT0ruCdH5SG-15" target="c98Ii0rdQeT0ruCdH5SG-3">
          <mxGeometry relative="1" as="geometry">
            <mxPoint x="242" y="219" as="sourcePoint" />
            <mxPoint x="337" y="217" as="targetPoint" />
          </mxGeometry>
        </mxCell>
        <mxCell id="c98Ii0rdQeT0ruCdH5SG-22" value="" style="endArrow=none;html=1;rounded=0;fontSize=12;startSize=8;endSize=8;curved=1;entryX=0;entryY=0.5;entryDx=0;entryDy=0;exitX=1;exitY=0.5;exitDx=0;exitDy=0;" edge="1" parent="1" source="c98Ii0rdQeT0ruCdH5SG-3" target="c98Ii0rdQeT0ruCdH5SG-1">
          <mxGeometry relative="1" as="geometry">
            <mxPoint x="252" y="229" as="sourcePoint" />
            <mxPoint x="347" y="227" as="targetPoint" />
          </mxGeometry>
        </mxCell>
        <mxCell id="c98Ii0rdQeT0ruCdH5SG-23" value="" style="endArrow=none;html=1;rounded=0;fontSize=12;startSize=8;endSize=8;curved=1;exitX=0.44;exitY=0.975;exitDx=0;exitDy=0;exitPerimeter=0;entryX=0.5;entryY=0;entryDx=0;entryDy=0;" edge="1" parent="1" source="c98Ii0rdQeT0ruCdH5SG-1" target="c98Ii0rdQeT0ruCdH5SG-46">
          <mxGeometry relative="1" as="geometry">
            <mxPoint x="193" y="218" as="sourcePoint" />
            <mxPoint x="208" y="254" as="targetPoint" />
          </mxGeometry>
        </mxCell>
        <mxCell id="c98Ii0rdQeT0ruCdH5SG-48" value="N" style="edgeLabel;html=1;align=center;verticalAlign=middle;resizable=0;points=[];fontSize=12;" vertex="1" connectable="0" parent="c98Ii0rdQeT0ruCdH5SG-23">
          <mxGeometry x="-0.3868" y="2" relative="1" as="geometry">
            <mxPoint x="-17" y="24" as="offset" />
          </mxGeometry>
        </mxCell>
        <mxCell id="c98Ii0rdQeT0ruCdH5SG-25" value="지역" style="whiteSpace=wrap;html=1;align=center;" vertex="1" parent="1">
          <mxGeometry x="154" y="391" width="100" height="40" as="geometry" />
        </mxCell>
        <mxCell id="c98Ii0rdQeT0ruCdH5SG-26" value="지역명" style="ellipse;whiteSpace=wrap;html=1;align=center;" vertex="1" parent="1">
          <mxGeometry x="14" y="363" width="100" height="40" as="geometry" />
        </mxCell>
        <mxCell id="c98Ii0rdQeT0ruCdH5SG-28" value="" style="endArrow=none;html=1;rounded=0;fontSize=12;startSize=8;endSize=8;curved=1;entryX=0;entryY=0.5;entryDx=0;entryDy=0;exitX=1;exitY=0.5;exitDx=0;exitDy=0;" edge="1" parent="1" source="c98Ii0rdQeT0ruCdH5SG-30" target="c98Ii0rdQeT0ruCdH5SG-25">
          <mxGeometry relative="1" as="geometry">
            <mxPoint x="95" y="435" as="sourcePoint" />
            <mxPoint x="329" y="393" as="targetPoint" />
          </mxGeometry>
        </mxCell>
        <mxCell id="c98Ii0rdQeT0ruCdH5SG-29" value="" style="endArrow=none;html=1;rounded=0;fontSize=12;startSize=8;endSize=8;curved=1;entryX=0;entryY=0.5;entryDx=0;entryDy=0;exitX=1;exitY=0.5;exitDx=0;exitDy=0;" edge="1" parent="1" source="c98Ii0rdQeT0ruCdH5SG-26" target="c98Ii0rdQeT0ruCdH5SG-25">
          <mxGeometry relative="1" as="geometry">
            <mxPoint x="264" y="425" as="sourcePoint" />
            <mxPoint x="359" y="423" as="targetPoint" />
          </mxGeometry>
        </mxCell>
        <mxCell id="c98Ii0rdQeT0ruCdH5SG-30" value="지역코드" style="ellipse;whiteSpace=wrap;html=1;align=center;fontStyle=4;" vertex="1" parent="1">
          <mxGeometry x="17" y="430" width="100" height="40" as="geometry" />
        </mxCell>
        <mxCell id="c98Ii0rdQeT0ruCdH5SG-31" value="제품" style="whiteSpace=wrap;html=1;align=center;" vertex="1" parent="1">
          <mxGeometry x="627" y="236" width="100" height="40" as="geometry" />
        </mxCell>
        <mxCell id="c98Ii0rdQeT0ruCdH5SG-32" value="제품명" style="ellipse;whiteSpace=wrap;html=1;align=center;" vertex="1" parent="1">
          <mxGeometry x="595" y="132" width="100" height="40" as="geometry" />
        </mxCell>
        <mxCell id="c98Ii0rdQeT0ruCdH5SG-33" value="" style="endArrow=none;html=1;rounded=0;fontSize=12;startSize=8;endSize=8;curved=1;entryX=0.5;entryY=0;entryDx=0;entryDy=0;exitX=0.5;exitY=1;exitDx=0;exitDy=0;" edge="1" parent="1" source="c98Ii0rdQeT0ruCdH5SG-35" target="c98Ii0rdQeT0ruCdH5SG-31">
          <mxGeometry relative="1" as="geometry">
            <mxPoint x="565" y="303" as="sourcePoint" />
            <mxPoint x="799" y="261" as="targetPoint" />
          </mxGeometry>
        </mxCell>
        <mxCell id="c98Ii0rdQeT0ruCdH5SG-34" value="" style="endArrow=none;html=1;rounded=0;fontSize=12;startSize=8;endSize=8;curved=1;exitX=0.5;exitY=1;exitDx=0;exitDy=0;" edge="1" parent="1" source="c98Ii0rdQeT0ruCdH5SG-32" target="c98Ii0rdQeT0ruCdH5SG-31">
          <mxGeometry relative="1" as="geometry">
            <mxPoint x="734" y="293" as="sourcePoint" />
            <mxPoint x="829" y="291" as="targetPoint" />
          </mxGeometry>
        </mxCell>
        <mxCell id="c98Ii0rdQeT0ruCdH5SG-35" value="제품코드" style="ellipse;whiteSpace=wrap;html=1;align=center;fontStyle=4;" vertex="1" parent="1">
          <mxGeometry x="508" y="153" width="100" height="40" as="geometry" />
        </mxCell>
        <mxCell id="c98Ii0rdQeT0ruCdH5SG-38" value="제품구분" style="ellipse;whiteSpace=wrap;html=1;align=center;" vertex="1" parent="1">
          <mxGeometry x="716" y="142" width="100" height="40" as="geometry" />
        </mxCell>
        <mxCell id="c98Ii0rdQeT0ruCdH5SG-39" value="" style="endArrow=none;html=1;rounded=0;fontSize=12;startSize=8;endSize=8;curved=1;exitX=0.5;exitY=1;exitDx=0;exitDy=0;entryX=0.5;entryY=0;entryDx=0;entryDy=0;" edge="1" parent="1" source="c98Ii0rdQeT0ruCdH5SG-38" target="c98Ii0rdQeT0ruCdH5SG-31">
          <mxGeometry relative="1" as="geometry">
            <mxPoint x="849" y="301" as="sourcePoint" />
            <mxPoint x="781" y="252" as="targetPoint" />
          </mxGeometry>
        </mxCell>
        <mxCell id="c98Ii0rdQeT0ruCdH5SG-40" value="제품명" style="ellipse;whiteSpace=wrap;html=1;align=center;" vertex="1" parent="1">
          <mxGeometry x="789" y="269" width="100" height="40" as="geometry" />
        </mxCell>
        <mxCell id="c98Ii0rdQeT0ruCdH5SG-41" value="" style="endArrow=none;html=1;rounded=0;fontSize=12;startSize=8;endSize=8;curved=1;exitX=0;exitY=0.5;exitDx=0;exitDy=0;entryX=1;entryY=0.5;entryDx=0;entryDy=0;" edge="1" parent="1" source="c98Ii0rdQeT0ruCdH5SG-44" target="c98Ii0rdQeT0ruCdH5SG-31">
          <mxGeometry relative="1" as="geometry">
            <mxPoint x="754" y="313" as="sourcePoint" />
            <mxPoint x="731" y="264" as="targetPoint" />
          </mxGeometry>
        </mxCell>
        <mxCell id="c98Ii0rdQeT0ruCdH5SG-44" value="제품색상" style="ellipse;shape=doubleEllipse;margin=3;whiteSpace=wrap;html=1;align=center;" vertex="1" parent="1">
          <mxGeometry x="789" y="199" width="100" height="40" as="geometry" />
        </mxCell>
        <mxCell id="c98Ii0rdQeT0ruCdH5SG-45" value="" style="endArrow=none;html=1;rounded=0;fontSize=12;startSize=8;endSize=8;curved=1;exitX=0;exitY=0.5;exitDx=0;exitDy=0;entryX=1;entryY=0.5;entryDx=0;entryDy=0;" edge="1" parent="1" source="c98Ii0rdQeT0ruCdH5SG-40" target="c98Ii0rdQeT0ruCdH5SG-31">
          <mxGeometry relative="1" as="geometry">
            <mxPoint x="793" y="263" as="sourcePoint" />
            <mxPoint x="717.3953488372092" y="279" as="targetPoint" />
          </mxGeometry>
        </mxCell>
        <mxCell id="c98Ii0rdQeT0ruCdH5SG-46" value="관리" style="shape=rhombus;perimeter=rhombusPerimeter;whiteSpace=wrap;html=1;align=center;" vertex="1" parent="1">
          <mxGeometry x="131" y="265" width="120" height="60" as="geometry" />
        </mxCell>
        <mxCell id="c98Ii0rdQeT0ruCdH5SG-47" value="" style="endArrow=none;html=1;rounded=0;fontSize=12;startSize=8;endSize=8;curved=1;" edge="1" parent="1" source="c98Ii0rdQeT0ruCdH5SG-25" target="c98Ii0rdQeT0ruCdH5SG-46">
          <mxGeometry relative="1" as="geometry">
            <mxPoint x="199" y="229" as="sourcePoint" />
            <mxPoint x="207" y="333" as="targetPoint" />
          </mxGeometry>
        </mxCell>
        <mxCell id="c98Ii0rdQeT0ruCdH5SG-49" value="1" style="edgeLabel;html=1;align=center;verticalAlign=middle;resizable=0;points=[];fontSize=12;" vertex="1" connectable="0" parent="c98Ii0rdQeT0ruCdH5SG-47">
          <mxGeometry x="0.1032" y="2" relative="1" as="geometry">
            <mxPoint x="-17" y="-20" as="offset" />
          </mxGeometry>
        </mxCell>
        <mxCell id="c98Ii0rdQeT0ruCdH5SG-50" style="edgeStyle=none;curved=1;rounded=0;orthogonalLoop=1;jettySize=auto;html=1;exitX=0.75;exitY=0;exitDx=0;exitDy=0;fontSize=12;startSize=8;endSize=8;" edge="1" parent="1" source="c98Ii0rdQeT0ruCdH5SG-31" target="c98Ii0rdQeT0ruCdH5SG-31">
          <mxGeometry relative="1" as="geometry" />
        </mxCell>
        <mxCell id="c98Ii0rdQeT0ruCdH5SG-51" value="구매" style="shape=rhombus;perimeter=rhombusPerimeter;whiteSpace=wrap;html=1;align=center;" vertex="1" parent="1">
          <mxGeometry x="349" y="199" width="120" height="60" as="geometry" />
        </mxCell>
        <mxCell id="c98Ii0rdQeT0ruCdH5SG-54" value="" style="endArrow=none;html=1;rounded=0;fontSize=12;startSize=8;endSize=8;curved=1;exitX=1;exitY=0.25;exitDx=0;exitDy=0;entryX=0;entryY=0.5;entryDx=0;entryDy=0;" edge="1" parent="1" source="c98Ii0rdQeT0ruCdH5SG-1" target="c98Ii0rdQeT0ruCdH5SG-51">
          <mxGeometry relative="1" as="geometry">
            <mxPoint x="199" y="229" as="sourcePoint" />
            <mxPoint x="201" y="275" as="targetPoint" />
          </mxGeometry>
        </mxCell>
        <mxCell id="c98Ii0rdQeT0ruCdH5SG-55" value="N" style="edgeLabel;html=1;align=center;verticalAlign=middle;resizable=0;points=[];fontSize=12;" vertex="1" connectable="0" parent="c98Ii0rdQeT0ruCdH5SG-54">
          <mxGeometry x="-0.3868" y="2" relative="1" as="geometry">
            <mxPoint x="67" y="13" as="offset" />
          </mxGeometry>
        </mxCell>
        <mxCell id="c98Ii0rdQeT0ruCdH5SG-56" value="" style="endArrow=none;html=1;rounded=0;fontSize=12;startSize=8;endSize=8;curved=1;exitX=1;exitY=0.5;exitDx=0;exitDy=0;entryX=0;entryY=0.5;entryDx=0;entryDy=0;" edge="1" parent="1" source="c98Ii0rdQeT0ruCdH5SG-51" target="c98Ii0rdQeT0ruCdH5SG-31">
          <mxGeometry relative="1" as="geometry">
            <mxPoint x="209" y="239" as="sourcePoint" />
            <mxPoint x="211" y="285" as="targetPoint" />
          </mxGeometry>
        </mxCell>
        <mxCell id="c98Ii0rdQeT0ruCdH5SG-57" value="M" style="edgeLabel;html=1;align=center;verticalAlign=middle;resizable=0;points=[];fontSize=12;" vertex="1" connectable="0" parent="c98Ii0rdQeT0ruCdH5SG-56">
          <mxGeometry x="-0.3868" y="2" relative="1" as="geometry">
            <mxPoint x="-45" y="-15" as="offset" />
          </mxGeometry>
        </mxCell>
        <mxCell id="c98Ii0rdQeT0ruCdH5SG-58" value="수량" style="ellipse;whiteSpace=wrap;html=1;align=center;" vertex="1" parent="1">
          <mxGeometry x="369" y="299" width="100" height="40" as="geometry" />
        </mxCell>
        <mxCell id="c98Ii0rdQeT0ruCdH5SG-59" value="구매번호" style="ellipse;whiteSpace=wrap;html=1;align=center;fontStyle=4;" vertex="1" parent="1">
          <mxGeometry x="274" y="331" width="100" height="40" as="geometry" />
        </mxCell>
        <mxCell id="c98Ii0rdQeT0ruCdH5SG-60" value="구매일자" style="ellipse;whiteSpace=wrap;html=1;align=center;" vertex="1" parent="1">
          <mxGeometry x="459" y="334" width="100" height="40" as="geometry" />
        </mxCell>
        <mxCell id="c98Ii0rdQeT0ruCdH5SG-61" value="" style="endArrow=none;html=1;rounded=0;fontSize=12;startSize=8;endSize=8;curved=1;exitX=0.5;exitY=0;exitDx=0;exitDy=0;entryX=0.5;entryY=1;entryDx=0;entryDy=0;" edge="1" parent="1" source="c98Ii0rdQeT0ruCdH5SG-60" target="c98Ii0rdQeT0ruCdH5SG-51">
          <mxGeometry relative="1" as="geometry">
            <mxPoint x="799" y="299" as="sourcePoint" />
            <mxPoint x="737" y="266" as="targetPoint" />
          </mxGeometry>
        </mxCell>
        <mxCell id="c98Ii0rdQeT0ruCdH5SG-62" value="" style="endArrow=none;html=1;rounded=0;fontSize=12;startSize=8;endSize=8;curved=1;exitX=0.5;exitY=0;exitDx=0;exitDy=0;entryX=0.5;entryY=1;entryDx=0;entryDy=0;" edge="1" parent="1" source="c98Ii0rdQeT0ruCdH5SG-58" target="c98Ii0rdQeT0ruCdH5SG-51">
          <mxGeometry relative="1" as="geometry">
            <mxPoint x="809" y="309" as="sourcePoint" />
            <mxPoint x="747" y="276" as="targetPoint" />
          </mxGeometry>
        </mxCell>
        <mxCell id="c98Ii0rdQeT0ruCdH5SG-63" value="" style="endArrow=none;html=1;rounded=0;fontSize=12;startSize=8;endSize=8;curved=1;exitX=0.5;exitY=0;exitDx=0;exitDy=0;entryX=0.442;entryY=0.967;entryDx=0;entryDy=0;entryPerimeter=0;" edge="1" parent="1" source="c98Ii0rdQeT0ruCdH5SG-59" target="c98Ii0rdQeT0ruCdH5SG-51">
          <mxGeometry relative="1" as="geometry">
            <mxPoint x="446" y="302" as="sourcePoint" />
            <mxPoint x="419" y="269" as="targetPoint" />
          </mxGeometry>
        </mxCell>
      </root>
    </mxGraphModel>
  </diagram>
  <diagram id="ouQ7OQZB8SZpLXld_psi" name="페이지-2">
    <mxGraphModel dx="1240" dy="1187" grid="0" gridSize="10" guides="1" tooltips="1" connect="1" arrows="1" fold="1" page="0" pageScale="1" pageWidth="827" pageHeight="1169" math="0" shadow="0">
      <root>
        <mxCell id="0" />
        <mxCell id="1" parent="0" />
        <mxCell id="-L0SbsVUaetVCsbkbbWM-1" value="고객" style="shape=table;startSize=30;container=1;collapsible=1;childLayout=tableLayout;fixedRows=1;rowLines=0;fontStyle=1;align=center;resizeLast=1;html=1;" vertex="1" parent="1">
          <mxGeometry x="-62" y="-64" width="180" height="240" as="geometry" />
        </mxCell>
        <mxCell id="-L0SbsVUaetVCsbkbbWM-2" value="" style="shape=tableRow;horizontal=0;startSize=0;swimlaneHead=0;swimlaneBody=0;fillColor=none;collapsible=0;dropTarget=0;points=[[0,0.5],[1,0.5]];portConstraint=eastwest;top=0;left=0;right=0;bottom=1;" vertex="1" parent="-L0SbsVUaetVCsbkbbWM-1">
          <mxGeometry y="30" width="180" height="30" as="geometry" />
        </mxCell>
        <mxCell id="-L0SbsVUaetVCsbkbbWM-3" value="PK" style="shape=partialRectangle;connectable=0;fillColor=none;top=0;left=0;bottom=0;right=0;fontStyle=1;overflow=hidden;whiteSpace=wrap;html=1;" vertex="1" parent="-L0SbsVUaetVCsbkbbWM-2">
          <mxGeometry width="30" height="30" as="geometry">
            <mxRectangle width="30" height="30" as="alternateBounds" />
          </mxGeometry>
        </mxCell>
        <mxCell id="-L0SbsVUaetVCsbkbbWM-4" value="고객코드" style="shape=partialRectangle;connectable=0;fillColor=none;top=0;left=0;bottom=0;right=0;align=left;spacingLeft=6;fontStyle=5;overflow=hidden;whiteSpace=wrap;html=1;" vertex="1" parent="-L0SbsVUaetVCsbkbbWM-2">
          <mxGeometry x="30" width="150" height="30" as="geometry">
            <mxRectangle width="150" height="30" as="alternateBounds" />
          </mxGeometry>
        </mxCell>
        <mxCell id="-L0SbsVUaetVCsbkbbWM-5" value="" style="shape=tableRow;horizontal=0;startSize=0;swimlaneHead=0;swimlaneBody=0;fillColor=none;collapsible=0;dropTarget=0;points=[[0,0.5],[1,0.5]];portConstraint=eastwest;top=0;left=0;right=0;bottom=0;" vertex="1" parent="-L0SbsVUaetVCsbkbbWM-1">
          <mxGeometry y="60" width="180" height="30" as="geometry" />
        </mxCell>
        <mxCell id="-L0SbsVUaetVCsbkbbWM-6" value="" style="shape=partialRectangle;connectable=0;fillColor=none;top=0;left=0;bottom=0;right=0;editable=1;overflow=hidden;whiteSpace=wrap;html=1;" vertex="1" parent="-L0SbsVUaetVCsbkbbWM-5">
          <mxGeometry width="30" height="30" as="geometry">
            <mxRectangle width="30" height="30" as="alternateBounds" />
          </mxGeometry>
        </mxCell>
        <mxCell id="-L0SbsVUaetVCsbkbbWM-7" value="고객이름" style="shape=partialRectangle;connectable=0;fillColor=none;top=0;left=0;bottom=0;right=0;align=left;spacingLeft=6;overflow=hidden;whiteSpace=wrap;html=1;" vertex="1" parent="-L0SbsVUaetVCsbkbbWM-5">
          <mxGeometry x="30" width="150" height="30" as="geometry">
            <mxRectangle width="150" height="30" as="alternateBounds" />
          </mxGeometry>
        </mxCell>
        <mxCell id="-L0SbsVUaetVCsbkbbWM-8" value="" style="shape=tableRow;horizontal=0;startSize=0;swimlaneHead=0;swimlaneBody=0;fillColor=none;collapsible=0;dropTarget=0;points=[[0,0.5],[1,0.5]];portConstraint=eastwest;top=0;left=0;right=0;bottom=0;" vertex="1" parent="-L0SbsVUaetVCsbkbbWM-1">
          <mxGeometry y="90" width="180" height="30" as="geometry" />
        </mxCell>
        <mxCell id="-L0SbsVUaetVCsbkbbWM-9" value="" style="shape=partialRectangle;connectable=0;fillColor=none;top=0;left=0;bottom=0;right=0;editable=1;overflow=hidden;whiteSpace=wrap;html=1;" vertex="1" parent="-L0SbsVUaetVCsbkbbWM-8">
          <mxGeometry width="30" height="30" as="geometry">
            <mxRectangle width="30" height="30" as="alternateBounds" />
          </mxGeometry>
        </mxCell>
        <mxCell id="-L0SbsVUaetVCsbkbbWM-10" value="전화번호" style="shape=partialRectangle;connectable=0;fillColor=none;top=0;left=0;bottom=0;right=0;align=left;spacingLeft=6;overflow=hidden;whiteSpace=wrap;html=1;" vertex="1" parent="-L0SbsVUaetVCsbkbbWM-8">
          <mxGeometry x="30" width="150" height="30" as="geometry">
            <mxRectangle width="150" height="30" as="alternateBounds" />
          </mxGeometry>
        </mxCell>
        <mxCell id="-L0SbsVUaetVCsbkbbWM-11" value="" style="shape=tableRow;horizontal=0;startSize=0;swimlaneHead=0;swimlaneBody=0;fillColor=none;collapsible=0;dropTarget=0;points=[[0,0.5],[1,0.5]];portConstraint=eastwest;top=0;left=0;right=0;bottom=0;" vertex="1" parent="-L0SbsVUaetVCsbkbbWM-1">
          <mxGeometry y="120" width="180" height="30" as="geometry" />
        </mxCell>
        <mxCell id="-L0SbsVUaetVCsbkbbWM-12" value="" style="shape=partialRectangle;connectable=0;fillColor=none;top=0;left=0;bottom=0;right=0;editable=1;overflow=hidden;whiteSpace=wrap;html=1;" vertex="1" parent="-L0SbsVUaetVCsbkbbWM-11">
          <mxGeometry width="30" height="30" as="geometry">
            <mxRectangle width="30" height="30" as="alternateBounds" />
          </mxGeometry>
        </mxCell>
        <mxCell id="-L0SbsVUaetVCsbkbbWM-13" value="이메일" style="shape=partialRectangle;connectable=0;fillColor=none;top=0;left=0;bottom=0;right=0;align=left;spacingLeft=6;overflow=hidden;whiteSpace=wrap;html=1;" vertex="1" parent="-L0SbsVUaetVCsbkbbWM-11">
          <mxGeometry x="30" width="150" height="30" as="geometry">
            <mxRectangle width="150" height="30" as="alternateBounds" />
          </mxGeometry>
        </mxCell>
        <mxCell id="-L0SbsVUaetVCsbkbbWM-16" value="" style="shape=tableRow;horizontal=0;startSize=0;swimlaneHead=0;swimlaneBody=0;fillColor=none;collapsible=0;dropTarget=0;points=[[0,0.5],[1,0.5]];portConstraint=eastwest;top=0;left=0;right=0;bottom=0;" vertex="1" parent="-L0SbsVUaetVCsbkbbWM-1">
          <mxGeometry y="150" width="180" height="30" as="geometry" />
        </mxCell>
        <mxCell id="-L0SbsVUaetVCsbkbbWM-17" value="" style="shape=partialRectangle;connectable=0;fillColor=none;top=0;left=0;bottom=0;right=0;editable=1;overflow=hidden;whiteSpace=wrap;html=1;" vertex="1" parent="-L0SbsVUaetVCsbkbbWM-16">
          <mxGeometry width="30" height="30" as="geometry">
            <mxRectangle width="30" height="30" as="alternateBounds" />
          </mxGeometry>
        </mxCell>
        <mxCell id="-L0SbsVUaetVCsbkbbWM-18" value="기본주소" style="shape=partialRectangle;connectable=0;fillColor=none;top=0;left=0;bottom=0;right=0;align=left;spacingLeft=6;overflow=hidden;whiteSpace=wrap;html=1;" vertex="1" parent="-L0SbsVUaetVCsbkbbWM-16">
          <mxGeometry x="30" width="150" height="30" as="geometry">
            <mxRectangle width="150" height="30" as="alternateBounds" />
          </mxGeometry>
        </mxCell>
        <mxCell id="-L0SbsVUaetVCsbkbbWM-19" value="" style="shape=tableRow;horizontal=0;startSize=0;swimlaneHead=0;swimlaneBody=0;fillColor=none;collapsible=0;dropTarget=0;points=[[0,0.5],[1,0.5]];portConstraint=eastwest;top=0;left=0;right=0;bottom=0;" vertex="1" parent="-L0SbsVUaetVCsbkbbWM-1">
          <mxGeometry y="180" width="180" height="30" as="geometry" />
        </mxCell>
        <mxCell id="-L0SbsVUaetVCsbkbbWM-20" value="" style="shape=partialRectangle;connectable=0;fillColor=none;top=0;left=0;bottom=0;right=0;editable=1;overflow=hidden;whiteSpace=wrap;html=1;" vertex="1" parent="-L0SbsVUaetVCsbkbbWM-19">
          <mxGeometry width="30" height="30" as="geometry">
            <mxRectangle width="30" height="30" as="alternateBounds" />
          </mxGeometry>
        </mxCell>
        <mxCell id="-L0SbsVUaetVCsbkbbWM-21" value="상세주소" style="shape=partialRectangle;connectable=0;fillColor=none;top=0;left=0;bottom=0;right=0;align=left;spacingLeft=6;overflow=hidden;whiteSpace=wrap;html=1;" vertex="1" parent="-L0SbsVUaetVCsbkbbWM-19">
          <mxGeometry x="30" width="150" height="30" as="geometry">
            <mxRectangle width="150" height="30" as="alternateBounds" />
          </mxGeometry>
        </mxCell>
        <mxCell id="EM5paDuKADJFY06fSG---23" value="" style="shape=tableRow;horizontal=0;startSize=0;swimlaneHead=0;swimlaneBody=0;fillColor=none;collapsible=0;dropTarget=0;points=[[0,0.5],[1,0.5]];portConstraint=eastwest;top=0;left=0;right=0;bottom=0;" vertex="1" parent="-L0SbsVUaetVCsbkbbWM-1">
          <mxGeometry y="210" width="180" height="30" as="geometry" />
        </mxCell>
        <mxCell id="EM5paDuKADJFY06fSG---24" value="" style="shape=partialRectangle;connectable=0;fillColor=none;top=0;left=0;bottom=0;right=0;editable=1;overflow=hidden;whiteSpace=wrap;html=1;" vertex="1" parent="EM5paDuKADJFY06fSG---23">
          <mxGeometry width="30" height="30" as="geometry">
            <mxRectangle width="30" height="30" as="alternateBounds" />
          </mxGeometry>
        </mxCell>
        <mxCell id="EM5paDuKADJFY06fSG---25" value="가입일" style="shape=partialRectangle;connectable=0;fillColor=none;top=0;left=0;bottom=0;right=0;align=left;spacingLeft=6;overflow=hidden;whiteSpace=wrap;html=1;" vertex="1" parent="EM5paDuKADJFY06fSG---23">
          <mxGeometry x="30" width="150" height="30" as="geometry">
            <mxRectangle width="150" height="30" as="alternateBounds" />
          </mxGeometry>
        </mxCell>
        <mxCell id="EM5paDuKADJFY06fSG---26" value="구매" style="shape=table;startSize=30;container=1;collapsible=1;childLayout=tableLayout;fixedRows=1;rowLines=0;fontStyle=1;align=center;resizeLast=1;html=1;" vertex="1" parent="1">
          <mxGeometry x="161" y="-64" width="180" height="120" as="geometry" />
        </mxCell>
        <mxCell id="EM5paDuKADJFY06fSG---27" value="" style="shape=tableRow;horizontal=0;startSize=0;swimlaneHead=0;swimlaneBody=0;fillColor=none;collapsible=0;dropTarget=0;points=[[0,0.5],[1,0.5]];portConstraint=eastwest;top=0;left=0;right=0;bottom=1;" vertex="1" parent="EM5paDuKADJFY06fSG---26">
          <mxGeometry y="30" width="180" height="30" as="geometry" />
        </mxCell>
        <mxCell id="EM5paDuKADJFY06fSG---28" value="PK" style="shape=partialRectangle;connectable=0;fillColor=none;top=0;left=0;bottom=0;right=0;fontStyle=1;overflow=hidden;whiteSpace=wrap;html=1;" vertex="1" parent="EM5paDuKADJFY06fSG---27">
          <mxGeometry width="30" height="30" as="geometry">
            <mxRectangle width="30" height="30" as="alternateBounds" />
          </mxGeometry>
        </mxCell>
        <mxCell id="EM5paDuKADJFY06fSG---29" value="구매번호" style="shape=partialRectangle;connectable=0;fillColor=none;top=0;left=0;bottom=0;right=0;align=left;spacingLeft=6;fontStyle=5;overflow=hidden;whiteSpace=wrap;html=1;" vertex="1" parent="EM5paDuKADJFY06fSG---27">
          <mxGeometry x="30" width="150" height="30" as="geometry">
            <mxRectangle width="150" height="30" as="alternateBounds" />
          </mxGeometry>
        </mxCell>
        <mxCell id="EM5paDuKADJFY06fSG---30" value="" style="shape=tableRow;horizontal=0;startSize=0;swimlaneHead=0;swimlaneBody=0;fillColor=none;collapsible=0;dropTarget=0;points=[[0,0.5],[1,0.5]];portConstraint=eastwest;top=0;left=0;right=0;bottom=0;" vertex="1" parent="EM5paDuKADJFY06fSG---26">
          <mxGeometry y="60" width="180" height="30" as="geometry" />
        </mxCell>
        <mxCell id="EM5paDuKADJFY06fSG---31" value="" style="shape=partialRectangle;connectable=0;fillColor=none;top=0;left=0;bottom=0;right=0;editable=1;overflow=hidden;whiteSpace=wrap;html=1;" vertex="1" parent="EM5paDuKADJFY06fSG---30">
          <mxGeometry width="30" height="30" as="geometry">
            <mxRectangle width="30" height="30" as="alternateBounds" />
          </mxGeometry>
        </mxCell>
        <mxCell id="EM5paDuKADJFY06fSG---32" value="수량" style="shape=partialRectangle;connectable=0;fillColor=none;top=0;left=0;bottom=0;right=0;align=left;spacingLeft=6;overflow=hidden;whiteSpace=wrap;html=1;" vertex="1" parent="EM5paDuKADJFY06fSG---30">
          <mxGeometry x="30" width="150" height="30" as="geometry">
            <mxRectangle width="150" height="30" as="alternateBounds" />
          </mxGeometry>
        </mxCell>
        <mxCell id="EM5paDuKADJFY06fSG---33" value="" style="shape=tableRow;horizontal=0;startSize=0;swimlaneHead=0;swimlaneBody=0;fillColor=none;collapsible=0;dropTarget=0;points=[[0,0.5],[1,0.5]];portConstraint=eastwest;top=0;left=0;right=0;bottom=0;" vertex="1" parent="EM5paDuKADJFY06fSG---26">
          <mxGeometry y="90" width="180" height="30" as="geometry" />
        </mxCell>
        <mxCell id="EM5paDuKADJFY06fSG---34" value="" style="shape=partialRectangle;connectable=0;fillColor=none;top=0;left=0;bottom=0;right=0;editable=1;overflow=hidden;whiteSpace=wrap;html=1;" vertex="1" parent="EM5paDuKADJFY06fSG---33">
          <mxGeometry width="30" height="30" as="geometry">
            <mxRectangle width="30" height="30" as="alternateBounds" />
          </mxGeometry>
        </mxCell>
        <mxCell id="EM5paDuKADJFY06fSG---35" value="구매일자" style="shape=partialRectangle;connectable=0;fillColor=none;top=0;left=0;bottom=0;right=0;align=left;spacingLeft=6;overflow=hidden;whiteSpace=wrap;html=1;" vertex="1" parent="EM5paDuKADJFY06fSG---33">
          <mxGeometry x="30" width="150" height="30" as="geometry">
            <mxRectangle width="150" height="30" as="alternateBounds" />
          </mxGeometry>
        </mxCell>
        <mxCell id="EM5paDuKADJFY06fSG---48" value="지역" style="shape=table;startSize=30;container=1;collapsible=1;childLayout=tableLayout;fixedRows=1;rowLines=0;fontStyle=1;align=center;resizeLast=1;html=1;" vertex="1" parent="1">
          <mxGeometry x="164" y="92" width="180" height="90" as="geometry" />
        </mxCell>
        <mxCell id="EM5paDuKADJFY06fSG---49" value="" style="shape=tableRow;horizontal=0;startSize=0;swimlaneHead=0;swimlaneBody=0;fillColor=none;collapsible=0;dropTarget=0;points=[[0,0.5],[1,0.5]];portConstraint=eastwest;top=0;left=0;right=0;bottom=1;" vertex="1" parent="EM5paDuKADJFY06fSG---48">
          <mxGeometry y="30" width="180" height="30" as="geometry" />
        </mxCell>
        <mxCell id="EM5paDuKADJFY06fSG---50" value="PK" style="shape=partialRectangle;connectable=0;fillColor=none;top=0;left=0;bottom=0;right=0;fontStyle=1;overflow=hidden;whiteSpace=wrap;html=1;" vertex="1" parent="EM5paDuKADJFY06fSG---49">
          <mxGeometry width="30" height="30" as="geometry">
            <mxRectangle width="30" height="30" as="alternateBounds" />
          </mxGeometry>
        </mxCell>
        <mxCell id="EM5paDuKADJFY06fSG---51" value="지역코드" style="shape=partialRectangle;connectable=0;fillColor=none;top=0;left=0;bottom=0;right=0;align=left;spacingLeft=6;fontStyle=5;overflow=hidden;whiteSpace=wrap;html=1;" vertex="1" parent="EM5paDuKADJFY06fSG---49">
          <mxGeometry x="30" width="150" height="30" as="geometry">
            <mxRectangle width="150" height="30" as="alternateBounds" />
          </mxGeometry>
        </mxCell>
        <mxCell id="EM5paDuKADJFY06fSG---52" value="" style="shape=tableRow;horizontal=0;startSize=0;swimlaneHead=0;swimlaneBody=0;fillColor=none;collapsible=0;dropTarget=0;points=[[0,0.5],[1,0.5]];portConstraint=eastwest;top=0;left=0;right=0;bottom=0;" vertex="1" parent="EM5paDuKADJFY06fSG---48">
          <mxGeometry y="60" width="180" height="30" as="geometry" />
        </mxCell>
        <mxCell id="EM5paDuKADJFY06fSG---53" value="" style="shape=partialRectangle;connectable=0;fillColor=none;top=0;left=0;bottom=0;right=0;editable=1;overflow=hidden;whiteSpace=wrap;html=1;" vertex="1" parent="EM5paDuKADJFY06fSG---52">
          <mxGeometry width="30" height="30" as="geometry">
            <mxRectangle width="30" height="30" as="alternateBounds" />
          </mxGeometry>
        </mxCell>
        <mxCell id="EM5paDuKADJFY06fSG---54" value="지역명" style="shape=partialRectangle;connectable=0;fillColor=none;top=0;left=0;bottom=0;right=0;align=left;spacingLeft=6;overflow=hidden;whiteSpace=wrap;html=1;" vertex="1" parent="EM5paDuKADJFY06fSG---52">
          <mxGeometry x="30" width="150" height="30" as="geometry">
            <mxRectangle width="150" height="30" as="alternateBounds" />
          </mxGeometry>
        </mxCell>
        <mxCell id="EM5paDuKADJFY06fSG---58" value="제품" style="shape=table;startSize=30;container=1;collapsible=1;childLayout=tableLayout;fixedRows=1;rowLines=0;fontStyle=1;align=center;resizeLast=1;html=1;" vertex="1" parent="1">
          <mxGeometry x="387" y="-64" width="180" height="150" as="geometry" />
        </mxCell>
        <mxCell id="EM5paDuKADJFY06fSG---59" value="" style="shape=tableRow;horizontal=0;startSize=0;swimlaneHead=0;swimlaneBody=0;fillColor=none;collapsible=0;dropTarget=0;points=[[0,0.5],[1,0.5]];portConstraint=eastwest;top=0;left=0;right=0;bottom=1;" vertex="1" parent="EM5paDuKADJFY06fSG---58">
          <mxGeometry y="30" width="180" height="30" as="geometry" />
        </mxCell>
        <mxCell id="EM5paDuKADJFY06fSG---60" value="PK" style="shape=partialRectangle;connectable=0;fillColor=none;top=0;left=0;bottom=0;right=0;fontStyle=1;overflow=hidden;whiteSpace=wrap;html=1;" vertex="1" parent="EM5paDuKADJFY06fSG---59">
          <mxGeometry width="30" height="30" as="geometry">
            <mxRectangle width="30" height="30" as="alternateBounds" />
          </mxGeometry>
        </mxCell>
        <mxCell id="EM5paDuKADJFY06fSG---61" value="제품코드" style="shape=partialRectangle;connectable=0;fillColor=none;top=0;left=0;bottom=0;right=0;align=left;spacingLeft=6;fontStyle=5;overflow=hidden;whiteSpace=wrap;html=1;" vertex="1" parent="EM5paDuKADJFY06fSG---59">
          <mxGeometry x="30" width="150" height="30" as="geometry">
            <mxRectangle width="150" height="30" as="alternateBounds" />
          </mxGeometry>
        </mxCell>
        <mxCell id="EM5paDuKADJFY06fSG---62" value="" style="shape=tableRow;horizontal=0;startSize=0;swimlaneHead=0;swimlaneBody=0;fillColor=none;collapsible=0;dropTarget=0;points=[[0,0.5],[1,0.5]];portConstraint=eastwest;top=0;left=0;right=0;bottom=0;" vertex="1" parent="EM5paDuKADJFY06fSG---58">
          <mxGeometry y="60" width="180" height="30" as="geometry" />
        </mxCell>
        <mxCell id="EM5paDuKADJFY06fSG---63" value="" style="shape=partialRectangle;connectable=0;fillColor=none;top=0;left=0;bottom=0;right=0;editable=1;overflow=hidden;whiteSpace=wrap;html=1;" vertex="1" parent="EM5paDuKADJFY06fSG---62">
          <mxGeometry width="30" height="30" as="geometry">
            <mxRectangle width="30" height="30" as="alternateBounds" />
          </mxGeometry>
        </mxCell>
        <mxCell id="EM5paDuKADJFY06fSG---64" value="제품명" style="shape=partialRectangle;connectable=0;fillColor=none;top=0;left=0;bottom=0;right=0;align=left;spacingLeft=6;overflow=hidden;whiteSpace=wrap;html=1;" vertex="1" parent="EM5paDuKADJFY06fSG---62">
          <mxGeometry x="30" width="150" height="30" as="geometry">
            <mxRectangle width="150" height="30" as="alternateBounds" />
          </mxGeometry>
        </mxCell>
        <mxCell id="EM5paDuKADJFY06fSG---65" value="" style="shape=tableRow;horizontal=0;startSize=0;swimlaneHead=0;swimlaneBody=0;fillColor=none;collapsible=0;dropTarget=0;points=[[0,0.5],[1,0.5]];portConstraint=eastwest;top=0;left=0;right=0;bottom=0;" vertex="1" parent="EM5paDuKADJFY06fSG---58">
          <mxGeometry y="90" width="180" height="30" as="geometry" />
        </mxCell>
        <mxCell id="EM5paDuKADJFY06fSG---66" value="" style="shape=partialRectangle;connectable=0;fillColor=none;top=0;left=0;bottom=0;right=0;editable=1;overflow=hidden;whiteSpace=wrap;html=1;" vertex="1" parent="EM5paDuKADJFY06fSG---65">
          <mxGeometry width="30" height="30" as="geometry">
            <mxRectangle width="30" height="30" as="alternateBounds" />
          </mxGeometry>
        </mxCell>
        <mxCell id="EM5paDuKADJFY06fSG---67" value="제품구분" style="shape=partialRectangle;connectable=0;fillColor=none;top=0;left=0;bottom=0;right=0;align=left;spacingLeft=6;overflow=hidden;whiteSpace=wrap;html=1;" vertex="1" parent="EM5paDuKADJFY06fSG---65">
          <mxGeometry x="30" width="150" height="30" as="geometry">
            <mxRectangle width="150" height="30" as="alternateBounds" />
          </mxGeometry>
        </mxCell>
        <mxCell id="EM5paDuKADJFY06fSG---68" value="" style="shape=tableRow;horizontal=0;startSize=0;swimlaneHead=0;swimlaneBody=0;fillColor=none;collapsible=0;dropTarget=0;points=[[0,0.5],[1,0.5]];portConstraint=eastwest;top=0;left=0;right=0;bottom=0;" vertex="1" parent="EM5paDuKADJFY06fSG---58">
          <mxGeometry y="120" width="180" height="30" as="geometry" />
        </mxCell>
        <mxCell id="EM5paDuKADJFY06fSG---69" value="" style="shape=partialRectangle;connectable=0;fillColor=none;top=0;left=0;bottom=0;right=0;editable=1;overflow=hidden;whiteSpace=wrap;html=1;" vertex="1" parent="EM5paDuKADJFY06fSG---68">
          <mxGeometry width="30" height="30" as="geometry">
            <mxRectangle width="30" height="30" as="alternateBounds" />
          </mxGeometry>
        </mxCell>
        <mxCell id="EM5paDuKADJFY06fSG---70" value="가격" style="shape=partialRectangle;connectable=0;fillColor=none;top=0;left=0;bottom=0;right=0;align=left;spacingLeft=6;overflow=hidden;whiteSpace=wrap;html=1;" vertex="1" parent="EM5paDuKADJFY06fSG---68">
          <mxGeometry x="30" width="150" height="30" as="geometry">
            <mxRectangle width="150" height="30" as="alternateBounds" />
          </mxGeometry>
        </mxCell>
      </root>
    </mxGraphModel>
  </diagram>
  <diagram id="Gt4Uhu8EX1bPr7ykWd2C" name="페이지-3">
    <mxGraphModel dx="748" dy="787" grid="0" gridSize="10" guides="1" tooltips="1" connect="1" arrows="1" fold="1" page="0" pageScale="1" pageWidth="827" pageHeight="1169" math="0" shadow="0">
      <root>
        <mxCell id="0" />
        <mxCell id="1" parent="0" />
      </root>
    </mxGraphModel>
  </diagram>
</mxfile>
